<?xml version="1.0" encoding="UTF-8"?>
<svg version="1.1" xmlns="http://www.w3.org/2000/svg" width="282" height="512">
<path d="M0 0 C17.43494956 0.12688497 32.84886081 4.84085236 48.8034668 11.5637207 C50.6035101 12.3191281 52.41590073 13.04493381 54.22924805 13.76782227 C60.35261034 16.226445 66.08957659 19.01634289 71.76049805 22.38500977 C72.60741211 22.88258789 73.45432617 23.38016602 74.3269043 23.89282227 C78.89451259 26.60207428 83.35673351 29.41502903 87.76049805 32.38500977 C88.60612305 32.85938477 89.45174805 33.33375977 90.32299805 33.82250977 C96.92966135 38.05755035 104.71249745 46.03661228 107.76049805 53.38500977 C108.37173787 57.40172857 108.07003457 58.930378 105.76049805 62.32250977 C103.65304207 64.62587011 101.34954956 66.5830588 98.94799805 68.57250977 C87.67207956 78.45477541 83.73449861 90.47641951 78.86743164 104.27807617 C77.1747921 109.0289652 75.37763726 113.73826491 73.57299805 118.44750977 C73.0771521 119.7503894 73.0771521 119.7503894 72.57128906 121.07958984 C70.67111383 126.06059013 68.70905118 131.01032112 66.69799805 135.94750977 C64.41330189 141.60074717 62.36697739 147.30659339 60.38549805 153.07250977 C57.68786491 160.92236555 54.74436073 168.64124902 51.60083008 176.32324219 C49.55816518 181.32444934 47.65068944 186.35848088 45.82080078 191.44140625 C41.25039575 204.12972618 36.6696937 216.83491852 31.57299805 229.32250977 C28.98022931 235.68459775 26.7372118 242.13817113 24.50585938 248.6328125 C22.42713367 254.62483446 20.15521425 260.5127742 17.76049805 266.38500977 C15.11776113 272.8714411 12.65505341 279.38376026 10.38549805 286.01000977 C6.54875305 297.19764226 2.26166882 308.20276731 -2.01831055 319.22680664 C-3.86411187 324.0003544 -5.67636021 328.78648481 -7.48950195 333.57250977 C-9.69583026 339.39255784 -11.95303937 345.18356464 -14.30200195 350.94750977 C-16.58669811 356.60074717 -18.63302261 362.30659339 -20.61450195 368.07250977 C-23.31213509 375.92236555 -26.25563927 383.64124902 -29.39916992 391.32324219 C-31.83638247 397.29044946 -34.06898802 403.31603633 -36.23950195 409.38500977 C-40.40302144 420.99618079 -44.65051336 432.5412693 -49.30224609 443.96679688 C-51.69012226 449.88212387 -53.8523209 455.85328732 -55.92700195 461.88500977 C-62.22164205 480.07845994 -69.87160284 498.3725771 -88.23950195 507.38500977 C-89.15344727 507.85036133 -90.06739258 508.31571289 -91.0090332 508.79516602 C-104.06760247 514.46387988 -120.61258426 514.76898375 -134.11450195 510.32250977 C-144.29603218 505.92201789 -152.2632374 498.95546437 -160.23950195 491.38500977 C-160.92141602 490.77399414 -161.60333008 490.16297852 -162.3059082 489.53344727 C-164.75696728 486.81004829 -166.18628466 483.98316305 -167.80200195 480.69750977 C-168.38079102 479.53864258 -168.95958008 478.37977539 -169.5559082 477.18579102 C-176.4851902 462.00212924 -176.7545792 444.63585333 -170.93481445 428.96875 C-170.06455843 426.76156814 -169.15532715 424.57363631 -168.23950195 422.38500977 C-167.59209513 420.76897129 -166.94764693 419.15174493 -166.3059082 417.53344727 C-165.30355481 415.01377897 -164.29654223 412.49661945 -163.27270508 409.9855957 C-160.90939802 404.17598603 -158.76839152 398.31900381 -156.73950195 392.38500977 C-154.13689419 384.77853011 -151.255398 377.32820314 -148.2199707 369.88500977 C-145.88164955 364.10691889 -143.75740279 358.28207159 -141.73950195 352.38500977 C-139.13668255 344.7785969 -136.25540303 337.32821548 -133.2199707 329.88500977 C-130.88164955 324.10691889 -128.75740279 318.28207159 -126.73950195 312.38500977 C-124.13668255 304.7785969 -121.25540303 297.32821548 -118.2199707 289.88500977 C-115.88164955 284.10691889 -113.75740279 278.28207159 -111.73950195 272.38500977 C-109.13668255 264.7785969 -106.25540303 257.32821548 -103.2199707 249.88500977 C-100.88164955 244.10691889 -98.75740279 238.28207159 -96.73950195 232.38500977 C-94.13668255 224.7785969 -91.25540303 217.32821548 -88.2199707 209.88500977 C-85.88164821 204.10691556 -83.757445 198.28206068 -81.73950195 192.38500977 C-79.08763333 184.63685521 -76.18081814 177.02485776 -73.0793457 169.44555664 C-71.03803543 164.44772055 -69.13263425 159.4169804 -67.30419922 154.33740234 C-65.3370814 148.88260855 -63.31503985 143.44798656 -61.30200195 138.01000977 C-60.88499023 136.88079102 -60.46797852 135.75157227 -60.03833008 134.58813477 C-57.97151717 129.00422601 -55.88071198 123.43153116 -53.7355957 117.87719727 C-51.17163517 111.23687546 -48.6991702 104.56454636 -46.23950195 97.88500977 C-43.33691451 90.00267073 -40.39095646 82.14061151 -37.36450195 74.30493164 C-35.96541027 70.67360861 -34.59913106 67.03128782 -33.23950195 63.38500977 C-25.82412478 43.55425541 -25.82412478 43.55425541 -24.23950195 40.38500977 C-23.99836422 38.2445403 -23.82274106 36.0965833 -23.67700195 33.94750977 C-23.60787598 32.97225342 -23.60787598 32.97225342 -23.53735352 31.97729492 C-23.29431983 28.0841877 -23.23737098 24.24148497 -23.3527832 20.34204102 C-23.37348877 19.49762451 -23.39419434 18.65320801 -23.41552734 17.78320312 C-23.46404656 16.12826557 -23.53412079 14.47378968 -23.62792969 12.82080078 C-23.75067142 8.42201508 -23.69032345 6.93489714 -20.78637695 3.39282227 C-19.9459082 2.73024414 -19.10543945 2.06766602 -18.23950195 1.38500977 C-15.04647017 -1.80802201 -4.30561182 0.01080289 0 0 Z " fill="#DBDBDB" transform="translate(174.239501953125,-0.385009765625)"/>
<path d="M0 0 C0.99 0.495 0.99 0.495 2 1 C1.64808594 1.87398437 1.29617187 2.74796875 0.93359375 3.6484375 C-5.12443627 18.72374836 -10.9693372 33.87096827 -16.65454102 49.09082031 C-19.77779413 57.43996543 -22.98967377 65.75192145 -26.23876953 74.05273438 C-30.02534673 83.73898831 -33.70169927 93.45687854 -37.1484375 103.26953125 C-39.42761253 109.73687186 -41.82966079 116.12423308 -44.4152832 122.47509766 C-47.55233477 130.25734201 -50.41569705 138.14312921 -53.30932617 146.01831055 C-56.86996329 155.70032182 -60.56852666 165.32514036 -64.3125 174.9375 C-66.94782336 181.77777506 -69.42541807 188.67324693 -71.91503906 195.56762695 C-74.04941213 201.45415587 -76.26213262 207.301524 -78.5625 213.125 C-81.01084019 219.32566512 -83.27213608 225.57014947 -85.4375 231.875 C-88.0873038 239.58440378 -91.00340692 247.14963792 -94.08740234 254.69506836 C-96.26562605 260.05607745 -98.21657341 265.4544512 -100.0625 270.9375 C-104.94724 285.2323522 -111.48537064 297.36548755 -125 305 C-136.48473479 309.70658684 -146.30272441 308.70914172 -157.73828125 304.484375 C-161.10909966 302.95034985 -163.98130949 301.13716408 -167 299 C-167.845625 298.401875 -168.69125 297.80375 -169.5625 297.1875 C-177.17703731 290.35394087 -181.66330877 281.09959525 -182.30859375 270.953125 C-182.72161036 259.98119807 -181.19165622 251.33511437 -176.94580078 241.24804688 C-175.93196754 238.8382956 -174.96086398 236.41416669 -173.99609375 233.984375 C-172.63898514 230.56949599 -171.26903696 227.16023495 -169.890625 223.75390625 C-167.81977529 218.59641579 -165.9321544 213.38987329 -164.10546875 208.140625 C-161.64995054 201.16452379 -158.96387713 194.27112278 -156.33398438 187.359375 C-151.76075845 175.33466907 -147.24209778 163.2920297 -142.79101562 151.22143555 C-139.08585924 141.19106902 -135.29760553 131.19307887 -131.49023438 121.20117188 C-131.04873047 120.04166016 -130.60722656 118.88214844 -130.15234375 117.6875 C-129.76038818 116.66011719 -129.36843262 115.63273437 -128.96459961 114.57421875 C-128.27331231 112.72938623 -127.62299961 110.86899883 -127 109 C-126.34 109 -125.68 109 -125 109 C-124.89429688 107.83339844 -124.78859375 106.66679687 -124.6796875 105.46484375 C-124.14644402 101.21292863 -122.82462036 97.47888225 -121.125 93.5625 C-119.41464617 89.4775234 -117.74165873 85.42413123 -116.4375 81.1875 C-114.05739797 73.83841303 -111.39973333 67.57123809 -105 63 C-103.83184985 61.68617466 -102.68797109 60.3505653 -101.5625 59 C-98.6804681 55.6240841 -95.81304124 53.32098162 -92 51 C-91.278125 50.38125 -90.55625 49.7625 -89.8125 49.125 C-80.01472625 41.72223761 -69.98788849 39.01872551 -58.06567383 36.98388672 C-35.09182859 32.99244924 -16.42495165 18.9824225 -1 2 C-0.67 1.34 -0.34 0.68 0 0 Z " fill="#C40101" transform="translate(197,186)"/>
<path d="M0 0 C0.99 0.495 0.99 0.495 2 1 C-0.18340181 8.86379677 -2.99285026 16.41675284 -6 24 C-5.195625 24.144375 -4.39125 24.28875 -3.5625 24.4375 C-1 25 -1 25 0 26 C0.1875 28.4375 0.1875 28.4375 0 31 C-0.66 31.66 -1.32 32.32 -2 33 C-4.5625 32.75 -4.5625 32.75 -7 32 C-7.495 31.01 -7.495 31.01 -8 30 C-11.25526641 37.47558968 -14.10205052 45.01306859 -16.76586914 52.71411133 C-18.23120835 56.91750662 -19.80325419 61.03296116 -21.5625 65.125 C-23.45564846 69.53428187 -25.03157245 73.99761809 -26.5 78.5625 C-28.27278196 84.06976603 -30.39638726 89.27912229 -32.87109375 94.5078125 C-35.55791156 100.43926496 -37.26757516 106.73661788 -39 113 C-38.21625 113.28875 -37.4325 113.5775 -36.625 113.875 C-34 115 -34 115 -32 117 C-31.625 120.4375 -31.625 120.4375 -32 124 C-33.625 125.9375 -33.625 125.9375 -36 127 C-39.125 127.1875 -39.125 127.1875 -42 127 C-42.66 127 -43.32 127 -44 127 C-48.43215251 135.89124821 -52.11412875 144.83208019 -55.30297852 154.24121094 C-57.34966758 160.24452958 -59.60014052 166.12951242 -62 172 C-65.14952273 179.70908602 -68.0005064 187.48526496 -70.65429688 195.37890625 C-71.79610612 198.74043711 -72.92391152 201.85462002 -74.57421875 205.0078125 C-77.99314938 212.18288335 -78.34117181 219.59862728 -78.3125 227.4375 C-78.32861328 228.31470703 -78.34472656 229.19191406 -78.36132812 230.09570312 C-78.36737274 238.29824814 -76.24911007 245.50205368 -73 253 C-77.89849574 252.43478895 -81.30455168 249.00815348 -84.35546875 245.39453125 C-92.91837879 233.88071067 -94.49246138 222.08080968 -93 208 C-91.92854283 202.86804687 -89.97403912 198.06662286 -87.94580078 193.24804688 C-86.93196754 190.8382956 -85.96086398 188.41416669 -84.99609375 185.984375 C-83.63898514 182.56949599 -82.26903696 179.16023495 -80.890625 175.75390625 C-78.81977529 170.59641579 -76.9321544 165.38987329 -75.10546875 160.140625 C-72.64995054 153.16452379 -69.96387713 146.27112278 -67.33398438 139.359375 C-62.76075845 127.33466907 -58.24209778 115.2920297 -53.79101562 103.22143555 C-50.08585924 93.19106902 -46.29760553 83.19307887 -42.49023438 73.20117188 C-42.04873047 72.04166016 -41.60722656 70.88214844 -41.15234375 69.6875 C-40.76038818 68.66011719 -40.36843262 67.63273437 -39.96459961 66.57421875 C-39.27331231 64.72938623 -38.62299961 62.86899883 -38 61 C-37.34 61 -36.68 61 -36 61 C-35.89429688 59.83339844 -35.78859375 58.66679687 -35.6796875 57.46484375 C-35.14644402 53.21292863 -33.82462036 49.47888225 -32.125 45.5625 C-30.41464617 41.4775234 -28.74165873 37.42413123 -27.4375 33.1875 C-25.05739797 25.83841303 -22.39973333 19.57123809 -16 15 C-14.83184985 13.68617466 -13.68797109 12.3505653 -12.5625 11 C-9.69031912 7.62722114 -6.79526794 5.32891442 -3 3 C-1.20605554 1.37648891 -1.20605554 1.37648891 0 0 Z " fill="#BB5050" transform="translate(108,234)"/>
<path d="M0 0 C5.52563014 4.1442226 9.26355934 7.99048974 10.5625 15.0625 C9.48825419 20.67245032 5.38658195 23.70897058 1.1875 27.1875 C-10.08841849 37.06976564 -14.02599944 49.09140975 -18.89306641 62.89306641 C-20.58570595 67.64395543 -22.38286079 72.35325514 -24.1875 77.0625 C-24.68334595 78.36537964 -24.68334595 78.36537964 -25.18920898 79.69458008 C-27.08938422 84.67558037 -29.05144687 89.62531136 -31.0625 94.5625 C-33.34719616 100.2157374 -35.39352066 105.92158363 -37.375 111.6875 C-40.07263313 119.53735579 -43.01613731 127.25623925 -46.15966797 134.93823242 C-48.20233286 139.93943958 -50.10980861 144.97347112 -51.93969727 150.05639648 C-56.5101023 162.74471641 -61.09080434 175.44990875 -66.1875 187.9375 C-68.78026873 194.29958799 -71.02328625 200.75316136 -73.25463867 207.24780273 C-75.33336438 213.23982469 -77.6052838 219.12776444 -80 225 C-82.64273692 231.48643133 -85.10544463 237.99875049 -87.375 244.625 C-91.211745 255.81263249 -95.49882923 266.81775754 -99.77880859 277.84179688 C-101.62460992 282.61534464 -103.43685825 287.40147504 -105.25 292.1875 C-107.45632831 298.00754807 -109.71353742 303.79855488 -112.0625 309.5625 C-114.34719616 315.2157374 -116.39352066 320.92158363 -118.375 326.6875 C-121.07263313 334.53735579 -124.01613731 342.25623925 -127.15966797 349.93823242 C-129.59688051 355.9054397 -131.82948606 361.93102657 -134 368 C-138.16351948 379.61117102 -142.41101141 391.15625954 -147.06274414 402.58178711 C-149.4506203 408.4971141 -151.61281895 414.46827756 -153.6875 420.5 C-159.98214009 438.69345018 -167.63210089 456.98756733 -186 466 C-186.91394531 466.46535156 -187.82789063 466.93070312 -188.76953125 467.41015625 C-201.95004509 473.13180615 -218.55613955 473.38818797 -232.125 468.75 C-236.47464294 466.95701742 -240.15466609 464.67005381 -244 462 C-242.1875 461.3125 -242.1875 461.3125 -240 461 C-239.34837891 461.680625 -239.34837891 461.680625 -238.68359375 462.375 C-232.91293546 467.94482332 -221.8951333 467.4394195 -214.29174805 467.34863281 C-198.05353665 466.81724676 -185.10752415 459.74451478 -174 448 C-165.86777191 438.11733716 -161.75935332 425.67004801 -157.67822266 413.72412109 C-155.73014444 408.02965631 -153.65217209 402.40842544 -151.4375 396.8125 C-149.22809101 391.22527958 -147.13979247 385.61950447 -145.1875 379.9375 C-142.7121986 372.7569113 -139.91567869 365.72555342 -137.0625 358.6875 C-134.07211893 351.30335969 -131.19018901 343.91776409 -128.625 336.375 C-125.67262846 327.69836796 -122.39451267 319.16085052 -119.0625 310.625 C-115.66077515 301.90625847 -112.28440551 293.18536073 -109.125 284.375 C-103.81492246 269.5780418 -98.18208247 254.90058002 -92.59765625 240.20556641 C-91.23949258 236.63155189 -89.88471871 233.05626427 -88.53125 229.48046875 C-85.73495307 222.10305959 -82.91180009 214.74511458 -79.9375 207.4375 C-77.31492384 200.94821451 -75.01972824 194.37196869 -72.74584961 187.75366211 C-70.37300099 180.91366523 -67.71894049 174.21463032 -64.98535156 167.51220703 C-62.26853331 160.79906223 -59.85777355 154.00541658 -57.50610352 147.15722656 C-55.34232828 140.88803276 -52.9543243 134.74657124 -50.453125 128.60546875 C-48.97731517 124.94371478 -47.56691582 121.26128754 -46.1875 117.5625 C-45.94692871 116.91748535 -45.70635742 116.2724707 -45.45849609 115.60791016 C-44.93448887 114.20083509 -44.41091154 112.79359986 -43.88769531 111.38623047 C-42.11845713 106.63030804 -40.34123898 101.87737598 -38.5625 97.125 C-38.17618408 96.09221924 -37.78986816 95.05943848 -37.3918457 93.99536133 C-34.83212252 87.16961221 -32.20227226 80.37503728 -29.52368164 73.59521484 C-27.68066227 68.88344012 -26.00103254 64.13309586 -24.37890625 59.34106445 C-16.45868367 35.99180827 -16.45868367 35.99180827 -8 28 C-7.071875 26.7934375 -7.071875 26.7934375 -6.125 25.5625 C-3.81082562 22.77187796 -1.29472177 20.60963501 1.51171875 18.33203125 C4.09207453 16.02257897 4.02000568 14.75593067 4.3125 11.1875 C4.28956743 6.97555139 2.89705844 5.07812459 0 2 C0 1.34 0 0.68 0 0 Z " fill="#040404" transform="translate(272,41)"/>
<path d="M0 0 C1.03060547 -0.01836914 1.03060547 -0.01836914 2.08203125 -0.03710938 C7.13110346 -0.05131877 11.54074946 0.78045302 16.375 2.1875 C17.56738281 2.50847656 18.75976562 2.82945313 19.98828125 3.16015625 C35.4459208 7.71420211 57.33341261 14.70311493 66.375 29.1875 C66.375 31.8125 66.375 31.8125 65.375 34.1875 C60.49449745 37.49364689 53.92500059 36.8472577 48.38085938 35.81689453 C28.41320998 31.5144481 6.77148963 24.28503608 -7.625 9.1875 C-8.285 8.5275 -8.945 7.8675 -9.625 7.1875 C-9.75 4.0625 -9.75 4.0625 -9.625 1.1875 C-6.55865271 -0.34567364 -3.36149037 0.00305035 0 0 Z " fill="#373737" transform="translate(184.625,13.8125)"/>
<path d="M0 0 C3.75212276 2.01502889 5.63644095 3.45466142 8 7 C8.68090463 12.11470225 8.84702203 16.56882485 6.1875 21.0625 C2.08191488 24.69887539 -0.38516994 25.49480499 -5.70703125 25.390625 C-9.62138042 24.72378528 -11.3237144 22.87700702 -14 20 C-15.44526641 15.66420076 -15.53564501 11.53126728 -15 7 C-11.34631622 0.9525234 -6.97125052 -1.09378789 0 0 Z " fill="#C63C3C" transform="translate(93,319)"/>
<path d="M0 0 C6.84162896 -0.65158371 6.84162896 -0.65158371 10 1.125 C11.504106 3.94519875 11.44912849 5.85610056 11 9 C9.375 11.375 9.375 11.375 7 13 C3.9375 13.5 3.9375 13.5 1 13 C-1.611137 10.7370146 -1.96165814 9.37575018 -2.3125 5.9375 C-2 3 -2 3 0 0 Z " fill="#E33838" transform="translate(128,288)"/>
<path d="M0 0 C0.33 0.66 0.66 1.32 1 2 C2.66072849 2.68132451 4.327767 3.34742127 6 4 C8 6 8 6 8.375 9.4375 C8 13 8 13 6.375 14.9375 C3.42076059 16.25913342 1.20598535 16.209086 -2 16 C-2.66 16 -3.32 16 -4 16 C-5.63676257 17.9600281 -5.63676257 17.9600281 -7 20 C-6.58268112 16.66144899 -5.60537338 14.07309263 -4.0625 11.125 C-2.15336304 7.47334167 -0.99807997 3.99231989 0 0 Z " fill="#B83939" transform="translate(68,345)"/>
<path d="M0 0 C2 1 2 1 3.04296875 3.9921875 C3.42617076 5.2859585 3.80756468 6.58026592 4.1875 7.875 C8.76190572 22.41890917 16.89261483 31.84536502 29.83984375 39.6171875 C30.55269531 40.07351563 31.26554687 40.52984375 32 41 C32 41.33 32 41.66 32 42 C29.07193129 42.41196731 26.88395742 42.57142366 24.33447266 40.92333984 C22.58930751 39.40524652 20.94425393 37.8268171 19.3125 36.1875 C18.74466797 35.64029297 18.17683594 35.09308594 17.59179688 34.52929688 C16.04580061 33.03404844 14.5189981 31.52260679 13 30 C12.48010498 29.50749756 11.96020996 29.01499512 11.42456055 28.50756836 C9.19100508 26.1438657 7.91458272 23.27026383 6.5 20.375 C6.19247803 19.75125488 5.88495605 19.12750977 5.56811523 18.48486328 C2.61624101 12.38909742 0 6.82060417 0 0 Z " fill="#979797" transform="translate(0,460)"/>
<path d="M0 0 C1.2375 0.1546875 1.2375 0.1546875 2.5 0.3125 C4.5 3.3125 4.5 3.3125 4.125 6 C3.91875 6.763125 3.7125 7.52625 3.5 8.3125 C0.625 8.9375 0.625 8.9375 -2.5 9.3125 C-4.5 7.3125 -4.5 7.3125 -4.75 4.8125 C-4.40047575 1.3172575 -3.47557682 0.4344471 0 0 Z " fill="#D13535" transform="translate(95.5,398.6875)"/>
<path d="M0 0 C0.54527344 0.13277344 1.09054688 0.26554687 1.65234375 0.40234375 C7.09902987 1.67789247 12.43120352 2.46963843 18 3 C18 3.99 18 4.98 18 6 C22.62 6 27.24 6 32 6 C32 6.33 32 6.66 32 7 C8.62182024 7.74788016 8.62182024 7.74788016 0 2 C0 1.34 0 0.68 0 0 Z " fill="#8E8E8E" transform="translate(32,502)"/>
<path d="M0 0 C5.875 1.875 5.875 1.875 7 3 C7.1875 5.4375 7.1875 5.4375 7 8 C6.34 8.66 5.68 9.32 5 10 C2.5 9.875 2.5 9.875 0 9 C-1.4375 7.25 -1.4375 7.25 -2 5 C-1.125 2.25 -1.125 2.25 0 0 Z " fill="#C93939" transform="translate(101,257)"/>
<path d="M0 0 C2 1 2 1 3.21875 4.203125 C3.65337787 5.54967146 4.08012918 6.89877935 4.5 8.25 C5.8697558 12.5585046 7.252667 16.82581562 9 21 C8.01 20.67 7.02 20.34 6 20 C4.78854206 17.39138618 3.76909709 14.88722957 2.8125 12.1875 C2.53986328 11.46240234 2.26722656 10.73730469 1.98632812 9.99023438 C0.65083168 6.33184437 0 3.99490577 0 0 Z " fill="#9D9D9D" transform="translate(0,460)"/>
<path d="M0 0 C3.94859783 0.5640854 6.70879046 1.7431706 10 4 C10 4.33 10 4.66 10 5 C7.25 5.3125 7.25 5.3125 4 5 C1.625 2.5 1.625 2.5 0 0 Z " fill="#888888" transform="translate(22,497)"/>
</svg>
